<svg width="328" height="30" viewBox="0 0 328 30" fill="none" xmlns="http://www.w3.org/2000/svg">
<mask id="mask0_130_2" style="mask-type:alpha" maskUnits="userSpaceOnUse" x="0" y="0" width="328" height="30">
<path d="M0 4C0 1.79086 1.79086 0 4 0H324C326.209 0 328 1.79086 328 4V30H0V4Z" fill="url(#paint0_linear_130_2)"/>
</mask>
<g mask="url(#mask0_130_2)">
<path d="M0 4C0 1.79086 1.79086 0 4 0H324C326.209 0 328 1.79086 328 4V30H0V4Z" fill="#1AB0B0"/>
<path opacity="0.1" fill-rule="evenodd" clip-rule="evenodd" d="M-21.5004 -0.0244853L-14.3592 11.5C-6.37847 14.5227 25.4676 5.33992 41.5 9C58.8764 12.7001 59.9465 20.3036 76.0853 20.3858C92.236 20.0703 104.349 14.3154 120.5 14C136.651 13.6846 158.159 19.6436 174.369 17.3405C190.578 15.0373 206.895 9.1561 223.093 7.25046C239.302 4.94726 256.738 6.65956 272.782 9.92208C288.838 12.7871 304.847 17.2422 320.974 17.7219C337.101 18.2016 353.346 14.7057 370.888 12.8401C387.098 10.5369 403.26 9.82387 411.348 9.26861L419.423 9.11089L418.382 44.0954L410.319 43.8556C402.255 43.6157 386.128 43.1361 370.001 42.6564C352.53 42.1368 336.403 41.6571 320.276 41.1774C304.149 40.6978 288.022 40.2181 271.895 39.7384C255.768 39.2588 238.297 38.7391 222.17 38.2595C206.043 37.7798 189.916 37.3001 173.789 36.8205C157.662 36.3408 140.191 35.8212 124.064 35.3415C107.937 34.8618 91.8103 34.3822 75.6833 33.9025C59.5563 33.4228 43.4293 32.9432 25.9583 32.4235C9.83131 31.9439 -6.2957 31.4642 -14.3592 31.2244L-22.4227 30.9845L-21.5004 -0.0244853Z" fill="white"/>
<g filter="url(#filter0_b_130_2)">
<path fill-rule="evenodd" clip-rule="evenodd" d="M0 6.12882H7C14 6.12882 27 6.12882 41 12.4621C55 18.7953 56 10.0262 70 9.05187C84 8.5647 100.5 26.5901 114.5 20.2568C128.5 13.9236 150 4.6673 164 9.05186C178 13.9236 191 21.7183 205 22.6927C219 23.667 232 17.3338 246 16.3594C260 15.3851 273 20.2568 287 20.2568C301 20.2568 314 15.3851 321 13.4364L328 11.0005V49H321C314 49 301 49 287 49C273 49 260 49 246 49C232 49 219 49 205 49C191 49 178 49 164 49C150 49 137 49 123 49C109 49 96 49 82 49C68 49 55 49 41 49C27 49 14 49 7 49H0V6.12882Z" fill="white" fill-opacity="0.1"/>
</g>
</g>
<defs>
<filter id="filter0_b_130_2" x="-7" y="-0.871178" width="342" height="56.8712" filterUnits="userSpaceOnUse" color-interpolation-filters="sRGB">
<feFlood flood-opacity="0" result="BackgroundImageFix"/>
<feGaussianBlur in="BackgroundImage" stdDeviation="3.5"/>
<feComposite in2="SourceAlpha" operator="in" result="effect1_backgroundBlur_130_2"/>
<feBlend mode="normal" in="SourceGraphic" in2="effect1_backgroundBlur_130_2" result="shape"/>
</filter>
<linearGradient id="paint0_linear_130_2" x1="-149.825" y1="15.4322" x2="-144.539" y2="73.2201" gradientUnits="userSpaceOnUse">
<stop stop-color="#FFACC6"/>
<stop offset="1" stop-color="#B6E0F5"/>
</linearGradient>
</defs>
</svg>
