<svg width="24" height="24" viewBox="0 0 24 24" fill="none" xmlns="http://www.w3.org/2000/svg">
<path d="M7.85369 11.328C7.34169 11.328 6.89369 11.2267 6.50969 11.024C6.13635 10.8107 5.84302 10.5227 5.62969 10.16C5.41635 9.78667 5.30969 9.36 5.30969 8.88C5.30969 8.38933 5.41102 7.96267 5.61369 7.6C5.82702 7.22667 6.12035 6.93867 6.49369 6.736C6.87769 6.52267 7.33102 6.416 7.85369 6.416C8.35502 6.416 8.79769 6.52267 9.18169 6.736C9.56569 6.93867 9.86435 7.22667 10.0777 7.6C10.291 7.96267 10.3977 8.38933 10.3977 8.88C10.3977 9.36 10.291 9.78667 10.0777 10.16C9.86435 10.5227 9.56569 10.8107 9.18169 11.024C8.79769 11.2267 8.35502 11.328 7.85369 11.328ZM7.86969 10.384C8.38169 10.384 8.75502 10.2453 8.98969 9.968C9.23502 9.69067 9.35769 9.328 9.35769 8.88C9.35769 8.57067 9.29902 8.304 9.18169 8.08C9.07502 7.84533 8.90969 7.664 8.68569 7.536C8.47235 7.408 8.20035 7.344 7.86969 7.344C7.34702 7.344 6.96302 7.48267 6.71769 7.76C6.47235 8.03733 6.34969 8.41067 6.34969 8.88C6.34969 9.328 6.47235 9.69067 6.71769 9.968C6.96302 10.2453 7.34702 10.384 7.86969 10.384ZM14.2654 18H12.8254V6.576H19.2094V7.84H14.2654V11.888H18.9054V13.152H14.2654V18Z" fill="white"/>
</svg>
